<svg width="497" height="524" viewBox="0 0 497 524" fill="none" xmlns="http://www.w3.org/2000/svg">
<rect width="495.613" height="524" transform="translate(0.942627)" fill="#0E7C7C"/>
<path d="M155.571 189.027H346.603V449.525C346.603 462.436 336.136 472.903 323.225 472.903H178.949C166.038 472.903 155.571 462.436 155.571 449.525V189.027Z" fill="#C5C2C2"/>
<mask id="mask0_4_70" style="mask-type:alpha" maskUnits="userSpaceOnUse" x="155" y="191" width="192" height="285">
<path d="M155.572 191.365H346.603V451.862C346.603 464.774 336.136 475.24 323.225 475.24H178.949C166.038 475.24 155.572 464.774 155.572 451.862V191.365Z" fill="#D9D9D9"/>
</mask>
<g mask="url(#mask0_4_70)">
<path d="M740.02 606.157L616.033 271.998C535.507 220.624 518.562 246.726 510.572 285.863C508.016 293.234 507.924 238.663 459.44 242.163C429.527 238.67 399.602 243.518 388.174 301.483C387.864 287.493 387.747 278.382 387.754 272.794C387.87 274.53 388.009 276.313 388.174 278.141C391.405 313.927 387.794 242.888 387.754 272.794C387.339 266.559 387.231 260.936 387.34 256.09C390.382 259.022 392.706 262.527 394.193 266.676C394.344 226.747 387.908 230.933 387.34 256.09C366.801 236.294 313.594 242.701 265.292 254.241C216.626 243.215 139.63 234.017 132.193 258.436V606.157H740.02Z" fill="#BAECF6"/>
<path d="M-23.7572 603.043V278.925C-24.025 252.552 -20.2411 243.3 -20.2411 243.3C-20.2411 243.3 24.8215 219.381 47.5918 246.604C70.3621 273.827 210.028 191.405 120.598 244.934C31.1674 298.462 126.015 227.267 223.368 257.459C285.152 257.459 265.105 255.964 283.276 257.459C322.223 260.664 362.068 210.526 383.673 295.456L347.605 603.043H-23.7572Z" fill="#31CBED"/>
</g>
<path d="M344.461 191.033C344.69 191.089 344.891 191.145 345.066 191.198C344.891 191.252 344.69 191.307 344.461 191.364C343.24 191.666 341.405 191.966 338.997 192.254C334.192 192.83 327.221 193.351 318.584 193.789C301.318 194.664 277.453 195.206 251.087 195.206C224.72 195.206 200.856 194.664 183.589 193.789C174.953 193.351 167.982 192.83 163.177 192.254C160.769 191.966 158.934 191.666 157.713 191.364C157.484 191.307 157.282 191.252 157.108 191.198C157.282 191.145 157.484 191.089 157.713 191.033C158.934 190.73 160.769 190.431 163.177 190.142C167.982 189.566 174.953 189.046 183.589 188.608C200.856 187.732 224.72 187.191 251.087 187.191C277.453 187.191 301.318 187.732 318.584 188.608C327.221 189.046 334.192 189.566 338.997 190.142C341.405 190.431 343.24 190.73 344.461 191.033Z" fill="#CBCBCB" stroke="white" stroke-width="1.66985"/>
<g opacity="0.7" filter="url(#filter0_f_4_70)">
<path d="M293.501 196.041H197.986H245.743H269.622H293.501L341.259 193.202V444.849C341.259 457.76 330.792 468.227 317.881 468.227H296.173L293.501 196.041Z" fill="white"/>
<path d="M296.338 468.06L295.891 422.471L293.67 196.198L341.092 193.379V444.849C341.092 457.668 330.7 468.06 317.881 468.06H296.338Z" stroke="white" stroke-width="0.333971"/>
</g>
<g opacity="0.7" filter="url(#filter1_f_4_70)">
<path d="M185.15 194.87L178.841 194.536L181.207 194.662L185.15 194.87L159.913 192.033V446.185C159.913 459.096 170.38 469.563 183.291 469.563H183.573H209.786H234.723H183.573L185.15 194.87Z" fill="white"/>
<path d="M183.291 469.396H183.407L184.982 195.029L181.198 194.828L178.832 194.703L178.841 194.536L178.85 194.37L179.517 194.405L160.08 192.22V446.185C160.08 459.004 170.472 469.396 183.291 469.396Z" stroke="white" stroke-width="0.333971"/>
</g>
<g filter="url(#filter2_d_4_70)">
<rect x="244.407" y="266.175" width="13.0249" height="206.728" fill="#31CBED"/>
</g>
<defs>
<filter id="filter0_f_4_70" x="193.978" y="189.194" width="151.289" height="283.04" filterUnits="userSpaceOnUse" color-interpolation-filters="sRGB">
<feFlood flood-opacity="0" result="BackgroundImageFix"/>
<feBlend mode="normal" in="SourceGraphic" in2="BackgroundImageFix" result="shape"/>
<feGaussianBlur stdDeviation="2.00382" result="effect1_foregroundBlur_4_70"/>
</filter>
<filter id="filter1_f_4_70" x="155.238" y="187.358" width="84.1605" height="286.881" filterUnits="userSpaceOnUse" color-interpolation-filters="sRGB">
<feFlood flood-opacity="0" result="BackgroundImageFix"/>
<feBlend mode="normal" in="SourceGraphic" in2="BackgroundImageFix" result="shape"/>
<feGaussianBlur stdDeviation="2.3378" result="effect1_foregroundBlur_4_70"/>
</filter>
<filter id="filter2_d_4_70" x="240.407" y="266.175" width="21.0249" height="214.728" filterUnits="userSpaceOnUse" color-interpolation-filters="sRGB">
<feFlood flood-opacity="0" result="BackgroundImageFix"/>
<feColorMatrix in="SourceAlpha" type="matrix" values="0 0 0 0 0 0 0 0 0 0 0 0 0 0 0 0 0 0 127 0" result="hardAlpha"/>
<feOffset dy="4"/>
<feGaussianBlur stdDeviation="2"/>
<feComposite in2="hardAlpha" operator="out"/>
<feColorMatrix type="matrix" values="0 0 0 0 0 0 0 0 0 0 0 0 0 0 0 0 0 0 0.25 0"/>
<feBlend mode="normal" in2="BackgroundImageFix" result="effect1_dropShadow_4_70"/>
<feBlend mode="normal" in="SourceGraphic" in2="effect1_dropShadow_4_70" result="shape"/>
</filter>
</defs>
</svg>
